<svg xmlns="http://www.w3.org/2000/svg" xmlns:xlink="http://www.w3.org/1999/xlink" width="665" height="561.643" viewBox="0 0 665 561.643">
  <defs>
    <clipPath id="clip-path">
      <rect id="Rettangolo_20" data-name="Rettangolo 20" width="665" height="548.015" fill="#fff"/>
    </clipPath>
    <clipPath id="clip-path-2">
      <rect id="Rettangolo_39" data-name="Rettangolo 39" width="628.423" height="561.643" fill="none"/>
    </clipPath>
  </defs>
  <g id="Raggruppa_2382" data-name="Raggruppa 2382" transform="translate(-13347.999 -3497.821)">
    <g id="Raggruppa_997" data-name="Raggruppa 997" transform="translate(13348 3504.827)">
      <g id="Raggruppa_25" data-name="Raggruppa 25" clip-path="url(#clip-path)">
        <path id="Tracciato_74" data-name="Tracciato 74" d="M.242,392.3c.143,3.286.351,6.559.636,9.847a205.4,205.4,0,0,0,4.136,27.144c.9,3.941,1.911,7.843,3.068,11.719A150.228,150.228,0,0,0,23.295,475.79a135.384,135.384,0,0,0,12.443,17.428c.168.183.325.379.481.564a135.477,135.477,0,0,0,31.426,27.091q5.11,3.2,10.466,5.972a164.2,164.2,0,0,0,23.365,9.846c5.227,1.755,10.583,3.288,16.018,4.6a229.656,229.656,0,0,0,31.724,5.291c5.9.6,11.858.995,17.853,1.218a385.739,385.739,0,0,0,63.994-3.365A556.677,556.677,0,0,0,286.1,534.294c10.206-2.384,19.984-4.937,29.15-7.515q8.543-2.416,16.344-4.819c19.126-5.88,34.714-11.51,44.947-15.385,4.369-1.651,7.762-2.986,10.038-3.877q7.216-2.828,14.523-5.957c12.338-5.264,24.833-11.117,37.341-17.493q4.545-2.32,9.088-4.714,12.717-6.738,25.341-14.142,7.606-4.459,15.135-9.153a624.838,624.838,0,0,0,71.341-51.446q4.447-3.714,8.777-7.5,8.815-7.718,17.057-15.635,3.355-3.241,6.618-6.507,8.445-8.445,16.122-17.1c2.354-2.645,4.656-5.289,6.891-7.961a300.061,300.061,0,0,0,20.14-26.817q3.978-5.969,7.463-11.954a185.525,185.525,0,0,0,15.849-34.294,143.432,143.432,0,0,0,3.914-14.036,114.06,114.06,0,0,0,2.808-26.2A100.233,100.233,0,0,0,662.3,210.1a99.543,99.543,0,0,0-2.86-9.649c-1.014-2.934-2.185-5.866-3.485-8.787a136.318,136.318,0,0,0-9.921-18.345q-2.476-3.888-5.252-7.7a186.936,186.936,0,0,0-19.789-22.994c-3.758-3.731-7.711-7.346-11.807-10.815-22.922-19.471-50.668-34.594-78.621-41.364-2.055-.5-3.979-.916-5.813-1.27a92.009,92.009,0,0,0-13.314-1.7c-14.522-.8-24.287,2.3-49.251-.706-5.89-.706-11.48-1.624-16.824-2.711a180.64,180.64,0,0,1-37.849-12.072A195.784,195.784,0,0,1,379.2,56.311q-4.1-2.69-7.984-5.486c-7.164-5.081-13.86-10.305-20.362-15.359-3.536-2.75-7.02-5.447-10.506-8.052C324.6,15.6,308.986,5.676,289.17,1.775c-31.269-6.167-65.685,4.1-99.334,25.258q-5.324,3.339-10.636,7.057-9.342,6.522-18.54,14.089c-2.419,1.991-4.824,4.019-7.217,6.115-6.553,5.7-13.028,11.773-19.373,18.149q-4.233,4.242-8.36,8.668A439.206,439.206,0,0,0,97.25,114.7q-8.055,10.468-15.563,21.474c-7.164,10.476-13.939,21.291-20.244,32.3q-2.711,4.735-5.305,9.506Q49.389,190.393,43.5,203.069q-1.989,4.242-3.848,8.485-4.8,10.881-8.881,21.827c-.753,2-1.481,3.994-2.184,6-.3.852-.625,1.768-.963,2.724-1.833,5.172-4.16,11.877-6.708,19.824-.936,2.92-1.886,6.01-2.873,9.245-1.872,6.259-3.8,13.081-5.657,20.348-.78,3.038-1.547,6.141-2.289,9.336-1.676,7.188-3.263,14.73-4.654,22.548-.558,3.065-1.066,6.18-1.547,9.324-1.221,7.961-2.224,16.131-2.9,24.447q-.39,4.693-.625,9.428c-.428,8.5-.507,17.1-.13,25.7" transform="translate(0 0)" fill="#fff"/>
      </g>
    </g>
    <g id="Raggruppa_998" data-name="Raggruppa 998" transform="translate(13366.289 3497.822)">
      <g id="Raggruppa_78" data-name="Raggruppa 78" clip-path="url(#clip-path-2)">
        <path id="Tracciato_375" data-name="Tracciato 375" d="M628.423,334.352c-.164,1.163-.4,2.32-.481,3.489-.914,13.656-1.645,27.326-2.748,40.966a354.924,354.924,0,0,1-5.151,35.923,331.5,331.5,0,0,1-21.916,71.9,257.3,257.3,0,0,1-32.038,54.783c-2.312,3-4.817,5.863-7.295,8.735a2.877,2.877,0,0,0-1,2.829c.373,1.77-1.526,3.388-3.452,3.118-6.946-.971-13.888-.232-20.819.049-10.478.424-20.947,1.075-31.418,1.632-24.893,1.325-49.809.868-74.718,1.091-8.768.079-17.528.723-26.3.951-7.56.2-15.125.171-22.689.244-.2,0-.459.085-.6-.007-.545-.365-1.4-.73-1.475-1.2s.63-1.544.987-1.54c2.469.023,2.71-1.893,3.4-3.46.517-1.183,1.032-2.369,1.6-3.532a7.031,7.031,0,0,0,.875-4.846,6.849,6.849,0,0,1,.444-3.188c3.35-11.524,6.328-23.135,8.678-34.9a1.711,1.711,0,0,1,.042-.295c2.608-6.344,1.9-13.083,2.306-19.67a84.245,84.245,0,0,0-1.23-19.567c-.643-3.71-1.714-7.351-2.312-11.066-.926-5.769-1.425-11.609-2.456-17.358-1.084-6.043-2.487-12.035-3.916-18.011a74.4,74.4,0,0,0-7.934-19.228c-1.171-2.076-2.186-4.243-3.152-6.42-.619-1.393-1.047-2.534-3.054-2.673-2.18-.151-2.6-1.731-1.089-3.3,5.535-5.766,7.591-12.772,7.264-20.475-.175-4.139-.961-8.251-1.456-12.376-.243-2.022-1.363-2.978-3.406-3.463a68.439,68.439,0,0,1-21.8-9.312A58.917,58.917,0,0,1,337.073,332.3a31.4,31.4,0,0,0-3.582-3.142,7.694,7.694,0,0,1-.744-.873,5.159,5.159,0,0,1,1.177-.609c3.541-.782,7.118-1.42,10.63-2.308a47.564,47.564,0,0,0,14.7-6.123c1.418-.931,3.026-1.574,4.519-2.4a22.457,22.457,0,0,0,7.31-6.132c.757-1.012.57-1.364-.68-1.38-1.815-.023-3.631.043-5.447.056-14.137.1-26.512-4.283-36.754-14.033a30.832,30.832,0,0,1-3.178-3.578,6.057,6.057,0,0,1-1.1-2.4c-.513-2.567.318-3.706,2.975-4.125a12.7,12.7,0,0,1,3-.041c11.386.947,22.546-.014,33.328-3.931,2.356-.856,4.61-1.979,6.9-3.009.245-.108.4-.415.59-.631a3.622,3.622,0,0,0-.89-.424c-9.206-1.565-18.073-4.141-25.967-9.193a52.225,52.225,0,0,1-8.421-6.724,18.211,18.211,0,0,1-3.81-5.969c-1.438-3.489.159-6.12,3.954-6.734,3.472-.561,7.021-.643,10.5-1.175,9.486-1.452,18.422-4.324,25.965-10.446a38.938,38.938,0,0,0,3.775-3.837,5.333,5.333,0,0,0,.661-1.253,6.414,6.414,0,0,0-1.308-.394,68.641,68.641,0,0,1-24.025-6.544,32.094,32.094,0,0,1-4.453-2.513,14.172,14.172,0,0,1-3.085-2.8c-2.2-2.789-1.628-5.164,1.632-6.738a42.869,42.869,0,0,1,4.835-1.672c3.138-1.068,6.335-1.993,9.4-3.244a32.906,32.906,0,0,0,14.57-12.13,4.282,4.282,0,0,0,.386-1.046,9.294,9.294,0,0,0-1.144.059c-11.408,1.966-22.462.117-33.377-3.052a16.209,16.209,0,0,1-4.075-1.912c-2.5-1.587-3-3.83-1.59-6.445a16.8,16.8,0,0,1,1.3-2,46.3,46.3,0,0,0,7.763-17.6,39.6,39.6,0,0,0,1.261-10.89c-.115-2.232-.181-2.468-2.127-1.549a135.381,135.381,0,0,0-12.285,6.332c-9.009,5.451-15.829,12.838-19.619,22.7a8.469,8.469,0,0,1-.528,1.071c-1.656,2.953-3.907,3.719-6.75,1.884a61.934,61.934,0,0,1-7.381-5.658c-6.626-5.856-12.165-12.692-17.72-19.5-.632-.773-1.252-1.558-1.811-2.383-.627-.92-1.213-.865-1.9-.088-6.988,7.854-13.037,16.242-14.508,26.918a21.692,21.692,0,0,0,4.632,17.058,6.892,6.892,0,0,1,.9,1.181,1.681,1.681,0,0,1-1.69,2.594,4.844,4.844,0,0,1-1.484-.255c-7.907-2.669-15.832-5.288-23.694-8.081a43.377,43.377,0,0,1-6.756-3.305,42.865,42.865,0,0,1-4.393-3.14c-.74-.557-1.424-1.19-2.131-1.788-.384.9-.813,1.787-1.146,2.7a95.523,95.523,0,0,0-5.343,23.128,56.428,56.428,0,0,0,3.653,26.586,28.537,28.537,0,0,1,1.4,3.922c.559,2.4-.963,4.121-3.457,4.012a12.815,12.815,0,0,1-2.677-.457c-10.16-2.674-20.017-6.1-29.03-11.558-1.285-.778-2.467-1.718-3.719-2.552a5.538,5.538,0,0,0-1.082-.428,4.681,4.681,0,0,0,.02,1.122c1.922,7.281,3.666,14.617,5.857,21.821a122.968,122.968,0,0,0,9.5,23.122,7.271,7.271,0,0,1,.406.8c.917,2.335-.155,4.163-2.684,3.976a88.868,88.868,0,0,1-11.67-1.528c-10.332-2.178-20.618-4.569-30.914-6.916-2.339-.534-2.366-.609-2.429,1.729-.135,4.97,0,9.932,1.484,14.729,2.195,7.108,6,13.189,12.17,17.664,1.948,1.411,3.936,2.77,5.851,4.224,1.049.794,2.081,1.752,1.665,3.239a3.584,3.584,0,0,1-3.158,2.425,19.159,19.159,0,0,1-2.714.158c-7.927.295-15.662-1.053-23.363-2.665-4.528-.949-9.055-1.9-13.559-2.942-1.118-.259-1.491-.032-1.422,1.051a21.307,21.307,0,0,0,.164,2.969c2.052,9.8,3.984,19.635,8.417,28.769A50.888,50.888,0,0,0,145.62,358.2a11.06,11.06,0,0,1,1.785,2.385c.961,1.93.066,3.6-2.076,4a6.648,6.648,0,0,1-2.109.074c-5.979-.818-11.993-1.459-17.912-2.586a37.343,37.343,0,0,1-14.254-6.282,6.125,6.125,0,0,0-1.082-.471,3.812,3.812,0,0,0-.175,1.357c2.273,8.83,4.446,17.685,6.928,26.458,1.776,6.282,5.415,11.691,9.181,16.984.23.324.61.595.711.947a3.43,3.43,0,0,1,.225,1.916c-.323.857-1.146.836-2.047.649-4.822-.992-9.672-1.849-14.491-2.858-19.818-4.148-36.928-13.408-51.881-26.706A168.234,168.234,0,0,1,14.9,313.983,182.991,182.991,0,0,1,3.158,273.17,220.346,220.346,0,0,1,.179,226.663a202.588,202.588,0,0,1,5.985-41.415,225.664,225.664,0,0,1,42.918-87.1C64.94,78.285,84.056,61.975,105.718,48.492c28.114-17.5,58.564-29.5,90.781-37.369A369.847,369.847,0,0,1,236.819,3.5c8.98-1.161,18.02-1.988,27.06-2.532C273.937.362,284.03-.08,294.1.011c9.663.088,19.332.8,28.977,1.5a357.974,357.974,0,0,1,68.9,11.954,380.979,380.979,0,0,1,95.945,40.917A280.061,280.061,0,0,1,528.9,84.842a281.81,281.81,0,0,1,51.5,59.722,292.444,292.444,0,0,1,22.806,42.925,286.6,286.6,0,0,1,17.25,54.42c2.041,9.995,3.741,20.063,5.318,30.141.795,5.081,1.032,10.254,1.409,15.392.349,4.745.535,9.5.826,14.251a9.607,9.607,0,0,0,.415,1.7Z" transform="translate(0 -0.001)" fill="#65839b"/>
        <path id="Tracciato_376" data-name="Tracciato 376" d="M328.833,342.161a215.424,215.424,0,0,1-11.1,67.451c-1.371,4.132-3.286,8.088-4.914,12.139a2.148,2.148,0,0,1-2.807,1.533c-3.2-.875-6.412-.12-9.617-.158-5.44-.065-10.877-.311-16.315-.449-7.86-.2-15.721-.428-23.582-.541-17.444-.252-34.894-.248-52.331-.708-15.823-.417-31.632-1.321-47.446-1.993-6.546-.279-13.1-.412-19.637-.8-5.117-.3-10.268-.372-15.3-1.583-3.251-.785-3.421-.992-2.08-3.895a26.5,26.5,0,0,1,2.24-4.206c8.064-11.415,16.468-22.569,26.724-32.222a263.515,263.515,0,0,1,27.767-22.491c7.914-5.645,15.924-11.165,23.891-16.742,1.274-.891,3.22-1.574,3.607-2.752.338-1.026-1.1-2.608-1.727-3.956-.671-1.441-1.367-2.874-1.948-4.351-.658-1.677-1.279-3.334-2.96-4.34a1.776,1.776,0,0,1-.74-.92c-.746-2.446-2.8-2.976-4.959-3.677-5.484-1.772-10.157-4.748-13.386-9.628-1.208-1.822-1.752-1.846-3.139-.185-.83.994-1.464,2.151-2.33,3.109a47.6,47.6,0,0,1-4.612,4.673,5.364,5.364,0,0,1-5.656,1.075c-1.323-.555-1.975.034-2.889.748-6.323,4.925-12.614,9.891-19.074,14.639a60.742,60.742,0,0,1-19.35,9.551,45.1,45.1,0,0,1-20.925,1.012,24.1,24.1,0,0,1-14.809-9.075c-5.659-7.159-8.53-15.356-9.672-24.307-1.179-9.247.788-17.953,4.2-26.411,2.931-7.274,6.133-14.447,9.365-21.6,3.543-7.833,5.659-16.07,7.511-24.391a6.534,6.534,0,0,0-.192-2.306c-.468-3.019-.963-6.037-1.455-9.053-.157-.967-.38-1.925-.5-2.9-.671-5.449-.819-10.852,1.456-16.055a7.972,7.972,0,0,0,.78-2.775,9.95,9.95,0,0,1,3.406-7.36,7.034,7.034,0,0,0,1.908-3.2,13.849,13.849,0,0,1,2.487-4.669,8.663,8.663,0,0,1,11.545-.76c1.217,1.023,1.732.73,2.668-.049,1.847-1.533,3.721-3.046,5.663-4.463a51.481,51.481,0,0,1,25.36-9.594,33.216,33.216,0,0,1,13.968,1.927c7.881,2.613,15.44,5.866,21.287,11.99a2.382,2.382,0,0,0,3,.579c1.8-.881,3.532-1.884,5.272-2.872a11.507,11.507,0,0,0,1.436-1.089c.59-.473,1.2-.791,1.871-.169.817.758.305,1.386-.208,2.056a14.876,14.876,0,0,1-5.886,4.535c-1.844.827-1.837.875-.8,2.4,2.288,3.375,4.621,6.722,6.856,10.13a1.4,1.4,0,0,0,1.776.606c2.533-.615,5.091-1.145,7.582-1.893,4.358-1.312,8.762-1.051,13.192-.66,17.062,1.5,31.893,8.561,45.9,17.747a130.22,130.22,0,0,1,43.071,45.889A118.714,118.714,0,0,1,324.9,300.494a218.52,218.52,0,0,1,3.932,41.667m-187.3-93.174c-.223,2.171-1.031,2.842-2.955,2.182a4.878,4.878,0,0,1-3.5-3.379c-.309-1.235-.415-2.52-.651-3.774-.212-1.127-.477-2.243-.72-3.365-.02-1.122-.181-2.207-1.886-1.431a2.789,2.789,0,0,1-1.179.189c-1.683-.036-4.1-1.966-4.09-3.429.016-1.675,1.124-2.4,2.768-2.493.842-.047.621-.609.311-1.01q-1.65-2.119-3.377-4.182c-.565-.67-1.064-.672-1.641.14a10.027,10.027,0,0,1-6.785,4.536c-.773.115-1.043.465-.729,1.213a28.731,28.731,0,0,0,1.349,3.284c2.677,4.65,5.535,9.2,8.126,13.893,3.275,5.929,7.644,10.7,14.034,13.374,4.907,2.054,9.873,3.972,14.873,5.793a23.209,23.209,0,0,0,5.3,1.048c1.862.21,1.939.081,1.776-1.657-.437-4.693.629-8.848,4.28-12.148a5.871,5.871,0,0,0,1.988-4.8q-.1-2.224-.334-4.441c-.3-2.759-.767-5.5-.947-8.269-.225-3.471-.161-6.925,1.621-10.131,1.148-2.065,1.117-2.22-1.184-3.179-4.981-2.076-9.413-5.307-14.765-6.637a14.061,14.061,0,0,1-4.245-2.218,4.338,4.338,0,0,0-4.165-.625,43.342,43.342,0,0,1-6.195,1.183c-.994.162-2.012-.147-1.994-1.226.009-.561.83-1.307,1.46-1.609a23.368,23.368,0,0,1,3.172-.933c2.176-.679,2.176-.7.5-2.277-.437-.412-.928-.773-1.332-1.211-2.564-2.786-5.164-5.543-7.638-8.406a34.153,34.153,0,0,1-2.535-3.828q-1.543,1.82-3.083,3.64c-.066.075-.122.158-.183.237A48.57,48.57,0,0,0,116.9,228.421c-.132,1.4.124,1.6,1.477,1.078a8.68,8.68,0,0,0,4.413-3.859c1.109-1.893,1.688-2.178,3.571-1.107a21.72,21.72,0,0,1,4.537,3.39c4.472,4.432,6.3,10.11,6.9,16.1.269,2.689,1.2,4.242,3.739,4.964m108.72,168.351v.541c7.056,0,14.115-.1,21.168.029,6.853.128,13.7.439,20.547.793,1.95.1,3.189-.356,4.048-2.2a70.386,70.386,0,0,1,3.633-6.512A163.849,163.849,0,0,0,316.667,370.1c.672-2.365.625-2.362-1.654-3.589-11.675-6.287-17.232-16.2-17.791-29.071a49.607,49.607,0,0,1,1.44-14.132c.216-.877-.1-1.095-.828-1.015-2,.217-3.989.543-5.992.712-7.739.656-15.483,1.134-23.105-.908-1-.268-1.228.045-1.374.861-.088.483-.312.942-.433,1.422-2.973,11.893-10.343,20.714-20.324,27.531-8.815,6.019-19.478,5.1-27.038-2.365-3.249-3.206-5.912-7-8.729-10.608-.837-1.073-1.237-1.391-2.525-.431-10.363,7.725-20.86,15.279-31.206,23.025a227.807,227.807,0,0,0-27.288,23.482c-8.735,9-15.7,19.373-23.405,29.17a2.3,2.3,0,0,0-.239.733,4.816,4.816,0,0,0,.881.115c1.3-.063,2.608-.275,3.9-.219,9.766.419,19.522.987,29.289,1.316,9.674.325,19.356.439,29.033.618,4.839.088,9.678.158,14.519.14a4.934,4.934,0,0,0,2.763-.749,18.238,18.238,0,0,0,3.41-3.347c5.424-6.9,10.93-13.748,16.114-20.822,4.711-6.429,9.029-13.135,13.566-19.689.641-.927.649-1.432-.327-2.142a20.819,20.819,0,0,1-3.278-3.036c-.375-.421-.314-1.213-.451-1.837a15.98,15.98,0,0,1,1.84.192c.263.056.462.37.715.532a2.7,2.7,0,0,0,.554.216c.086-.264.274-.543.241-.793-.079-.582-.351-1.147-.382-1.725a.963.963,0,0,1,1.522-.735,2.892,2.892,0,0,1,.709.913c1.341,2.412,2.686,4.822,3.978,7.259a.791.791,0,0,1-.713,1.263c-.992,0-1.307.543-1.752,1.28-2.832,4.682-5.517,9.474-8.678,13.935-6.337,8.943-12.958,17.693-19.438,26.537-.616.839-1.075,1.792-1.606,2.692a21,21,0,0,0,3.187.487c11.5.036,22.99.023,34.486.023M268.64,277.782a157.226,157.226,0,0,0-3.889-35.673c-.76-3.578-1.771-7.1-2.589-10.669a1.763,1.763,0,0,1,.417-1.533,1.62,1.62,0,0,1,1.573.164,8.542,8.542,0,0,1,2.05,3.127c1.071,4.322,1.966,8.69,2.8,13.065a126.249,126.249,0,0,1,2.741,22.378c.068,6.646.19,13.3-.088,19.937-.249,5.927-.947,11.842-1.573,17.75-.408,3.839-.99,7.662-1.608,11.474-.174,1.068.073,1.4,1.129,1.5,3.6.338,7.193.924,10.8,1.084a79.757,79.757,0,0,0,19.5-1.848c7-1.429,13.9-3.278,20.854-4.925,1.294-.306,1.8-.839,1.484-2.292-.6-2.8-.959-5.661-1.4-8.5-3.574-22.977-14.071-42.621-29.792-59.726a133.011,133.011,0,0,0-40.045-29.327,81.566,81.566,0,0,0-37.863-8.753,14.1,14.1,0,0,0-8.254,3.091,2.488,2.488,0,0,0-1.031,3.248c.992,3.3,2.67,6.443,2.679,10.011a2.693,2.693,0,0,0,.6,1.335,7.337,7.337,0,0,0,.99,1,6.088,6.088,0,0,0,.563-1.249,20.719,20.719,0,0,1,5.9-11.17A14.729,14.729,0,0,1,218.3,208.8c.556-.273,1.444.108,2.18.192a5.047,5.047,0,0,1-.353,1.846,20.284,20.284,0,0,1-2.268,2.775,25.333,25.333,0,0,0-5.756,10.342c-.864,2.955-.863,5.714,1.049,8.494,2.478,3.6,4.616,7.446,6.761,11.26a137.916,137.916,0,0,1,14.5,35.782c1.868,7.9,3.092,15.938,4.526,23.929a25.443,25.443,0,0,1,.3,4.991c-.011.57-.592,1.131-.914,1.7a6.208,6.208,0,0,1-1.374-1.271,7.84,7.84,0,0,1-.93-2.47c-1.056-5.847-1.961-11.722-3.086-17.556a126.138,126.138,0,0,0-9.618-29.035c-.671-1.452-.74-1.427-1.723-.185-.373.467-.715.96-1.08,1.432a21.042,21.042,0,0,1-14.149,8.327,34.8,34.8,0,0,1-6.3-.077c-1.133-.05-1.69.14-1.425,1.463.408,2.036.689,4.1.945,6.165,1.237,9.925,2.3,19.873,3.708,29.772a75.686,75.686,0,0,0,11.465,31.05,46.368,46.368,0,0,0,9.2,10.588,16.122,16.122,0,0,0,13.588,3.436,18.786,18.786,0,0,0,7.739-3.2c10.109-7.1,16.748-16.408,19.175-28.539a223.635,223.635,0,0,0,4.166-42.227m-156.371,61.5c.02-.1.042-.2.064-.307,1.61-.072,3.233-.041,4.826-.235a52.9,52.9,0,0,0,23.964-9.157c5.36-3.7,10.579-7.6,15.831-11.443,1.615-1.184,3.171-2.453,4.678-3.765.325-.282.607-1.116.429-1.375a15.033,15.033,0,0,1-2.4-9.926,2.567,2.567,0,0,0-.2-.773,3.752,3.752,0,0,0-.746.41c-1.7,1.528-3.163,3.451-5.111,4.542-5.468,3.061-11.322,4.786-17.651,2.85a5.136,5.136,0,0,0-5.486,1.344c-1.758,1.628-3.613,3.17-5.528,4.617a14.33,14.33,0,0,1-3.876,2.254c-3.13,1.059-6.584.791-8.523-2.827a11.632,11.632,0,0,1-1.456-7.93,14.134,14.134,0,0,0-1.959-10.832c-.6-.906-1.073-2.115-1.935-2.563-.565-.293-1.714.593-2.631.846a11.367,11.367,0,0,1-2.372.377,3.776,3.776,0,0,1-3.329-1.725,1.5,1.5,0,0,1-.254-1.289,1.676,1.676,0,0,1,1.237-.588c.693-.031,1.4.257,2.091.23,2.065-.079,3.021-1.49,2.156-3.381-1.495-3.262-1.3-6.542-.42-9.871.2-.766.446-1.524.718-2.266.289-.785.223-1.256-.751-1.512-.49-.128-.855-.714-1.275-1.093.453-.467.841-1.244,1.371-1.353,2.259-.467,3.024-2.044,3.474-3.976.269-1.157.6-2.3.921-3.444.325-1.168-.024-1.666-1.308-2.07a40.792,40.792,0,0,1-6.6-2.791c-1.124-.586-1.526-.453-1.983.625-3.6,8.5-7.377,16.932-10.8,25.5A45.157,45.157,0,0,0,93.9,331.862a16.245,16.245,0,0,0,9.186,5.908c3.03.642,6.118,1.015,9.179,1.51m70.9-140.939c-.992.119-2,.173-2.971.381-.477.1-1.042.642-.285.994,2.034.942,3.459,3.109,6.135,2.82.886-.1,2.094.487,1.692,1.54-.572,1.5.384,2.157,1.023,3.131a34.237,34.237,0,0,1,2.461,4.378,1.59,1.59,0,0,1-.559,1.477,1.754,1.754,0,0,1-1.533-.39,19.756,19.756,0,0,1-1.921-2.279,25.586,25.586,0,0,0-13.667-8.8c-1.588-.419-3.22-.561-4.512.791a4.484,4.484,0,0,0-.559,1.01,3.462,3.462,0,0,0,1.032.255c3.308-.228,6.08,1.082,8.724,2.829,4.081,2.694,6.4,6.772,8.828,10.771.1.171.276.381.241.534a4.567,4.567,0,0,1-.614,1.794c-.135.169-1.144-.079-1.515-.4a14.8,14.8,0,0,1-1.959-2.238,30.128,30.128,0,0,0-7.909-7.692c-4.43-2.75-8.3-1.778-11.417,2.629a11.072,11.072,0,0,0-.928,2.148,18.1,18.1,0,0,0,2.231.248,7.38,7.38,0,0,0,2.058-.3c3.224-.976,5.584-.433,7.644,2.369a34.73,34.73,0,0,0,5.672,5.687,52.277,52.277,0,0,1,3.878,3.753,8.1,8.1,0,0,1,1.511,2.2,1.713,1.713,0,0,1-.166,1.555,1.623,1.623,0,0,1-1.522.088c-.855-.494-1.542-1.258-2.352-1.839-3.574-2.568-7.114-5.189-10.776-7.63a10.47,10.47,0,0,0-6.336-1.637c-.923.038-.9.4-.881,1.287.04,1.943,1.336,2.491,2.754,3.014,7.551,2.782,12.627,8.223,16.812,14.756,1.758,2.743,4,5.189,6,7.779a23.35,23.35,0,0,1,1.743,2.408,51.268,51.268,0,0,1,6.114,15.744c.464,2.277,1.155,2.764,3.567,2.565,1.5-.124,2.986-.439,4.479-.67,6.586-1.032,11.109-4.763,14.257-10.392a2.431,2.431,0,0,0,.115-2.726c-.941-1.637-1.69-3.383-2.666-5-5.139-8.519-10.39-16.972-15.465-25.527-3.033-5.117-6.268-10.139-8.439-15.723a20.664,20.664,0,0,0-2.555-4.012,7.755,7.755,0,0,0-7.47-3.683M324.751,342.328c-.543-8.1-1.091-16-1.586-23.908-.084-1.362-.6-1.659-1.917-1.326-5.265,1.33-10.511,2.77-15.843,3.771-2.555.482-3.521,1.637-3.938,3.981a48.767,48.767,0,0,0-.132,13.607c1.319,12.987,8.1,21.862,20.346,26.8,1.051.422,1.413.275,1.489-.852.512-7.407,1.056-14.812,1.581-22.071m-20.375,76.549c.005-.065.009-.128.015-.19,1.009,0,2.016.005,3.022,0,2.56-.016,2.575-.013,3.483-2.293,5.862-14.736,8.993-30.139,11.494-45.694.1-.618.132-1.21-.742-1.289-.72-.063-1.427-.149-1.6.848-.1.582-.351,1.138-.461,1.72a106.057,106.057,0,0,1-7.176,21.993,173.361,173.361,0,0,1-10.853,20.2c-.808,1.353-1.451,2.8-2.171,4.206q2.492.248,4.983.5m-103.8-103.2c-.733-3.888-1.5-7.452-2.038-11.048-.23-1.555-.735-1.087-1.672-.678q-3.413,1.491-6.929,2.744a38.884,38.884,0,0,1-3.88.965c1.012.936,1.963,1.95,3.052,2.793,3.276,2.534,7.249,3.74,10.99,5.383.157.07.442-.147.477-.16m-92.906-57.325c-.307-1.087-.5-1.952-.8-2.782q-1.631-4.588-3.326-9.152a3.215,3.215,0,0,0-.5-.69,4.656,4.656,0,0,0-.219.536c-.782,2.84-1.6,5.67-2.3,8.53a1.68,1.68,0,0,0,.5,1.5c1.869.888,3.81,1.632,5.751,2.371.217.081.576-.194.881-.309m7.052-68.477a16.557,16.557,0,0,0-3.035,1.1c-.609.343-.923,1.186-1.371,1.8a15.728,15.728,0,0,1,1.729.277,4.373,4.373,0,0,1,1.911.724c1.056,1.062,1.778.843,2.595-.226.711-.931,1.526-1.785,2.3-2.673l-4.124-1m-13.459,26.616c.122.04.243.077.365.115a3.478,3.478,0,0,0,.015.884,5.663,5.663,0,0,0,.457.949c.238-.259.585-.48.694-.782q1.985-5.556,3.892-11.138c.069-.2-.093-.485-.148-.731-.188.059-.429.065-.557.185-.638.606-1.53,1.136-1.813,1.882-1.076,2.84-1.953,5.751-2.906,8.636m6.633-15.121c1.544.89,2.337-.3,3.158-1.476.4-.57.875-1.08,1.277-1.645a3.622,3.622,0,0,0,.329-.8,2.959,2.959,0,0,0-.861-.189,8.454,8.454,0,0,0-6.045,3.436c-.057.072.247.6.439.642a9.662,9.662,0,0,0,1.7.031" transform="translate(65.701 138.246)" fill="#263747"/>
        <path id="Tracciato_377" data-name="Tracciato 377" d="M127.965,217.008a2.623,2.623,0,0,1,1.1.027,15.843,15.843,0,0,1,1.831,1.2,15.436,15.436,0,0,1-1.453,1.368,2.613,2.613,0,0,1-1.137.358A22.726,22.726,0,0,0,118.426,224a2.1,2.1,0,0,1-.753.471c-.437.065-1.117.153-1.294-.074-.3-.377-.55-1.17-.344-1.477a9.768,9.768,0,0,1,2.328-2.64,18.365,18.365,0,0,1,9.6-3.271" transform="translate(95.944 172.98)" fill="#263747"/>
        <path id="Tracciato_378" data-name="Tracciato 378" d="M123.674,205.689a21.885,21.885,0,0,1,3.278.052c.459.07.83.71,1.239,1.093-.384.381-.733,1.051-1.157,1.1a74.345,74.345,0,0,1-7.448.548c-.579.009-1.17-.8-1.756-1.231.556-.485,1.049-1.262,1.679-1.393a28.727,28.727,0,0,1,4.159-.313l.005.144" transform="translate(97.49 163.88)" fill="#263747"/>
        <path id="Tracciato_379" data-name="Tracciato 379" d="M120.565,207.248a3.407,3.407,0,0,1-3.1-3.081,2.521,2.521,0,0,1,2.613-2.31c1.837.032,3.7,1.745,3.574,3.282-.108,1.289-1.407,2.173-3.092,2.108" transform="translate(97.191 160.941)" fill="#263747"/>
        <path id="Tracciato_380" data-name="Tracciato 380" d="M111.148,211.1a39.478,39.478,0,0,1-2.648,3.129c-.239.237-1.095.113-1.491-.128a1.246,1.246,0,0,1-.252-1.228,14.307,14.307,0,0,1,2.039-2.115c.947-.838,1.6.343,2.419.424Z" transform="translate(88.267 167.798)" fill="#263747"/>
        <path id="Tracciato_381" data-name="Tracciato 381" d="M113.438,216.065c1.528-1.6,2.668-1.8,4.3-.66.351.244.81.94.705,1.1-.291.435-.952,1.053-1.286.96a34.456,34.456,0,0,1-3.786-1.479Z" transform="translate(93.8 171.168)" fill="#263747"/>
        <path id="Tracciato_382" data-name="Tracciato 382" d="M39.443,167.85c-3.05-1.822-3.26-3.255-.839-5.715.194-.2.367-.415.552-.622a2.517,2.517,0,0,0-.864-.117c-1.86.424-3.706.909-5.566,1.332a13.941,13.941,0,0,1-2.374.345c-1.272.061-2.452-.113-2.765-1.655-.287-1.405.185-2.354,1.732-3.061a27.609,27.609,0,0,1,3.4-1.224c1.725-.528,3.478-.978,5.21-1.488a3.21,3.21,0,0,0,.744-.473,4.225,4.225,0,0,0-.9-.273c-3.306-.255-6.613-.489-9.921-.726-.5-.036-1.007-.04-1.5-.108-1.009-.138-1.849-.708-1.7-1.7a2.356,2.356,0,0,1,1.449-1.614c2.849-.561,5.734-1,8.625-1.3,4.4-.446,8.806-.9,13.219-1.051,5.427-.189,10.866-.129,16.3-.061,2.195.029,2.514.5,2.619,2.669a5.78,5.78,0,0,0,.066,1.474c.488,1.5-.177,2.475-1.363,3.269a6.524,6.524,0,0,0-.866.606c1.168,2.193-.855,2.93-2.008,3.629-5.4,3.275-10.957,6.273-17.356,7.293a9.648,9.648,0,0,0-1.643.566Z" transform="translate(20.374 118.222)" fill="#fff"/>
        <path id="Tracciato_383" data-name="Tracciato 383" d="M87.117,111.983c1.65-8.449,3.154-16.929,5-25.335,1.336-6.086,3.1-12.08,4.735-18.1.3-1.091.508-2.509,2.2-2.331,1.135.119,1.35,1.125.9,3.215-.331,1.549-.585,3.115-.837,4.678-.143.89.037,1.388,1.2,1.517,2.725.3,3.41,1.224,2.767,4.013-1.488,6.468-3.145,12.9-4.718,19.35a15.516,15.516,0,0,0-.227,1.682,10.47,10.47,0,0,0,.974-1.368q4.029-8.142,8.015-16.305a12.439,12.439,0,0,1,.78-1.6,2.492,2.492,0,0,1,2.962-.879,1.971,1.971,0,0,1,1.363,2.365,10.015,10.015,0,0,1-.629,2.277c-2.955,8.733-6,17.436-8.848,26.2-1.5,4.612-2.628,9.339-3.962,14-.312,1.089-.375,2.545-2.078,2.428-1.087-.074-1.376-1.2-.979-3.264q1.091-5.688,2.16-11.38a3.1,3.1,0,0,0-.088-.868,3.013,3.013,0,0,0-.811.573c-.91,1.307-1.676,2.723-2.673,3.958-1.537,1.9-2.8,1.774-4.861.356-1.963-1.35-2.41-3-2.354-5.185" transform="translate(72.075 52.784)" fill="#fff"/>
        <path id="Tracciato_384" data-name="Tracciato 384" d="M81.793,139.379a10.042,10.042,0,0,1-2.017-.241c-1.652-.478-3.123-1.014-4.718.469-.517.482-2.151.14-3.108-.235-2.8-1.1-5.528-2.385-8.267-3.634q-3.152-1.437-6.259-2.964c-2.376-1.172-2.39-2.027-.152-3.55a.884.884,0,0,0,.258-.785c-.133-.462-.526-.861-.629-1.325a2.126,2.126,0,0,1,2.231-2.784,6.8,6.8,0,0,1,3.1.965,98.173,98.173,0,0,1,8.75,5.825,27.393,27.393,0,0,0,10.4,5.218,6.019,6.019,0,0,1,1.964.726,6.542,6.542,0,0,1,1.193,1.5c-.588.289-1.168.595-1.769.852-.164.072-.4-.007-.978-.038" transform="translate(46.016 99.125)" fill="#fff"/>
        <path id="Tracciato_385" data-name="Tracciato 385" d="M70.7,115.482a9.658,9.658,0,0,1,1.824.9,20.554,20.554,0,0,1,2.359,2.272,34.416,34.416,0,0,0,8.028,7.1,5.5,5.5,0,0,1,1.561,1.368c.292.394.539,1.334.387,1.438a2.563,2.563,0,0,1-1.778.519,15.116,15.116,0,0,1-2.734-1.2c-1.292-.595-1.447-.5-1.509.989-.011.291.1.593.069.881-.23,2.072-1.906,2.849-3.644,1.7a5.6,5.6,0,0,1-.687-.573q-4.635-4.233-9.265-8.469c-.729-.667-1.707-1.276-1.212-2.443.426-1,1.352-.793,2.3-.839.683-.034,1.349-.909,1.975-1.459.8-.7,1.548-1.443,2.33-2.178" transform="translate(52.924 92.073)" fill="#fff"/>
      </g>
    </g>
  </g>
</svg>
